<svg xmlns="http://www.w3.org/2000/svg" viewBox="0 0 560 480" font-family="monospace" font-size="12">
  <rect width="560" height="480" fill="white"/>

  <!-- Title -->
  <text x="280" y="25" text-anchor="middle" fill="#111827" font-weight="bold" font-size="15">Causal Block Mask</text>

  <!-- Column labels -->
  <text x="180" y="55" text-anchor="middle" fill="#6b7280" font-size="11">kv=0</text>
  <text x="260" y="55" text-anchor="middle" fill="#6b7280" font-size="11">kv=1</text>
  <text x="340" y="55" text-anchor="middle" fill="#6b7280" font-size="11">kv=2</text>
  <text x="420" y="55" text-anchor="middle" fill="#6b7280" font-size="11">kv=3</text>

  <!-- Row labels -->
  <text x="115" y="100" text-anchor="end" fill="#6b7280" font-size="11">i=0</text>
  <text x="115" y="180" text-anchor="end" fill="#6b7280" font-size="11">i=1</text>
  <text x="115" y="260" text-anchor="end" fill="#6b7280" font-size="11">i=2</text>
  <text x="115" y="340" text-anchor="end" fill="#6b7280" font-size="11">i=3</text>

  <!-- Row 0: P S S S -->
  <rect x="140" y="65" width="70" height="65" rx="3" fill="#fef9c3" stroke="#eab308" stroke-width="1.5"/>
  <text x="175" y="103" text-anchor="middle" fill="#854d0e" font-weight="bold" font-size="16">P</text>
  <rect x="220" y="65" width="70" height="65" rx="3" fill="#fee2e2" stroke="#fca5a5" stroke-width="1"/>
  <text x="255" y="103" text-anchor="middle" fill="#991b1b" font-weight="bold" font-size="16">S</text>
  <rect x="300" y="65" width="70" height="65" rx="3" fill="#fee2e2" stroke="#fca5a5" stroke-width="1"/>
  <text x="335" y="103" text-anchor="middle" fill="#991b1b" font-weight="bold" font-size="16">S</text>
  <rect x="380" y="65" width="70" height="65" rx="3" fill="#fee2e2" stroke="#fca5a5" stroke-width="1"/>
  <text x="415" y="103" text-anchor="middle" fill="#991b1b" font-weight="bold" font-size="16">S</text>

  <!-- Row 1: F P S S -->
  <rect x="140" y="145" width="70" height="65" rx="3" fill="#dcfce7" stroke="#22c55e" stroke-width="1.5"/>
  <text x="175" y="183" text-anchor="middle" fill="#166534" font-weight="bold" font-size="16">F</text>
  <rect x="220" y="145" width="70" height="65" rx="3" fill="#fef9c3" stroke="#eab308" stroke-width="1.5"/>
  <text x="255" y="183" text-anchor="middle" fill="#854d0e" font-weight="bold" font-size="16">P</text>
  <rect x="300" y="145" width="70" height="65" rx="3" fill="#fee2e2" stroke="#fca5a5" stroke-width="1"/>
  <text x="335" y="183" text-anchor="middle" fill="#991b1b" font-weight="bold" font-size="16">S</text>
  <rect x="380" y="145" width="70" height="65" rx="3" fill="#fee2e2" stroke="#fca5a5" stroke-width="1"/>
  <text x="415" y="183" text-anchor="middle" fill="#991b1b" font-weight="bold" font-size="16">S</text>

  <!-- Row 2: F F P S -->
  <rect x="140" y="225" width="70" height="65" rx="3" fill="#dcfce7" stroke="#22c55e" stroke-width="1.5"/>
  <text x="175" y="263" text-anchor="middle" fill="#166534" font-weight="bold" font-size="16">F</text>
  <rect x="220" y="225" width="70" height="65" rx="3" fill="#dcfce7" stroke="#22c55e" stroke-width="1.5"/>
  <text x="255" y="263" text-anchor="middle" fill="#166534" font-weight="bold" font-size="16">F</text>
  <rect x="300" y="225" width="70" height="65" rx="3" fill="#fef9c3" stroke="#eab308" stroke-width="1.5"/>
  <text x="335" y="263" text-anchor="middle" fill="#854d0e" font-weight="bold" font-size="16">P</text>
  <rect x="380" y="225" width="70" height="65" rx="3" fill="#fee2e2" stroke="#fca5a5" stroke-width="1"/>
  <text x="415" y="263" text-anchor="middle" fill="#991b1b" font-weight="bold" font-size="16">S</text>

  <!-- Row 3: F F F P -->
  <rect x="140" y="305" width="70" height="65" rx="3" fill="#dcfce7" stroke="#22c55e" stroke-width="1.5"/>
  <text x="175" y="343" text-anchor="middle" fill="#166534" font-weight="bold" font-size="16">F</text>
  <rect x="220" y="305" width="70" height="65" rx="3" fill="#dcfce7" stroke="#22c55e" stroke-width="1.5"/>
  <text x="255" y="343" text-anchor="middle" fill="#166534" font-weight="bold" font-size="16">F</text>
  <rect x="300" y="305" width="70" height="65" rx="3" fill="#dcfce7" stroke="#22c55e" stroke-width="1.5"/>
  <text x="335" y="343" text-anchor="middle" fill="#166534" font-weight="bold" font-size="16">F</text>
  <rect x="380" y="305" width="70" height="65" rx="3" fill="#fef9c3" stroke="#eab308" stroke-width="1.5"/>
  <text x="415" y="343" text-anchor="middle" fill="#854d0e" font-weight="bold" font-size="16">P</text>

  <!-- Legend -->
  <rect x="80" y="400" width="20" height="20" rx="3" fill="#dcfce7" stroke="#22c55e" stroke-width="1"/>
  <text x="108" y="415" fill="#374151" font-size="11">F = FULL — compute normally</text>

  <rect x="80" y="428" width="20" height="20" rx="3" fill="#fef9c3" stroke="#eab308" stroke-width="1"/>
  <text x="108" y="443" fill="#374151" font-size="11">P = PARTIAL — apply element mask</text>

  <rect x="80" y="456" width="20" height="20" rx="3" fill="#fee2e2" stroke="#fca5a5" stroke-width="1"/>
  <text x="108" y="471" fill="#374151" font-size="11">S = SKIP — don't load K,V!</text>

  <!-- Stats -->
  <text x="460" y="415" fill="#6b7280" font-size="11">6 of 16 SKIP</text>
  <text x="460" y="433" fill="#dc2626" font-weight="bold" font-size="11">~38% skipped</text>
</svg>